<?xml version="1.0" encoding="utf-8"?>
<!-- Generator: Adobe Illustrator 19.2.1, SVG Export Plug-In . SVG Version: 6.00 Build 0)  -->
<svg version="1.1" xmlns="http://www.w3.org/2000/svg" xmlns:xlink="http://www.w3.org/1999/xlink" x="0px" y="0px" width="83px"
	 height="83px" viewBox="0 0 83 83" enable-background="new 0 0 83 83" xml:space="preserve">
<g id="Livello_2">
</g>
<g id="Livello_1">
	<rect x="37.327" y="57.066" fill="#E75300" width="5.197" height="1.67"/>
	<rect x="63.562" y="57.066" fill="#E75300" width="5.197" height="1.67"/>
	<path fill="#EDAA00" d="M50.445,57.903c-0.007,1.432,1.155,2.59,2.592,2.595c1.441-0.003,2.599-1.166,2.599-2.598L50.445,57.903z"
		/>
	<path fill="#8C7965" d="M47.025,40.042c1.01,1.018,2.659,1.018,3.675,0c1.013-1.007,1.013-2.653,0-3.674
		c-1.024-1.013-2.665-1.013-3.675,0C46.01,37.389,46.002,39.026,47.025,40.042z M47.559,38.208l1.302-1.295l1.299,1.295
		l-1.299,1.303L47.559,38.208z"/>
	<path fill="#8C7965" d="M20.62,40.042c1.01,1.018,2.655,1.018,3.675,0c1.009-1.007,1.009-2.653,0-3.674
		c-1.025-1.013-2.665-1.013-3.675,0C19.605,37.389,19.597,39.026,20.62,40.042z M21.154,38.208l1.299-1.295l1.298,1.295
		l-1.298,1.303L21.154,38.208z"/>
	<path fill="#E75300" d="M38.253,38.211c0.008,1.434-1.159,2.59-2.592,2.595c-1.444-0.006-2.599-1.164-2.599-2.598L38.253,38.211z"
		/>
	<path fill="#007481" d="M75.122,31.342H60.737V12.811c0-3.235-2.634-5.866-5.87-5.866H8.296c-3.234,0-5.866,2.631-5.866,5.866
		v31.458c0,3.238,2.632,5.872,5.866,5.872h8.691c-0.336,3.068-2.85,5.472-6.003,5.599l0.028,1.401h0.01l-0.004-0.554l0.022,0.554
		c3.907-0.157,7.014-3.175,7.355-7h10.157V64.51c0,2.914,2.37,5.285,5.283,5.285h32.256c0.339,3.395,3.112,6.064,6.593,6.205
		l0.024-0.606L72.714,76l0.028-1.401c-2.722-0.11-4.879-2.169-5.214-4.805h7.594c2.911,0,5.28-2.371,5.28-5.285V36.622
		C80.402,33.711,78.033,31.342,75.122,31.342z M8.296,48.739c-2.462,0-4.464-2.005-4.464-4.47V12.811
		c0-2.462,2.002-4.465,4.464-4.465h46.571c2.464,0,4.468,2.003,4.468,4.465v31.458c0,2.465-2.004,4.47-4.468,4.47H8.296z M79,64.51
		c0,2.141-1.739,3.883-3.878,3.883H33.837c-2.14,0-3.881-1.742-3.881-3.883V50.141h24.911c3.236,0,5.87-2.634,5.87-5.872V32.744
		h14.385c2.139,0,3.878,1.74,3.878,3.878V64.51z"/>
</g>
</svg>
